<svg width="58" height="40" viewBox="0 0 58 40" fill="none" xmlns="http://www.w3.org/2000/svg">
<path fill-rule="evenodd" clip-rule="evenodd" d="M27.9939 3.08321C25.1026 1.14073 21.5766 0 17.7712 0C7.95646 0 0 7.58839 0 16.9492C0 20.5785 1.19606 23.9414 3.23275 26.6989L27.9939 3.08321ZM0.0846938 36.9168C2.97593 38.8593 6.50195 40 10.3073 40C20.1221 40 28.0786 32.4116 28.0786 23.0509C28.0786 19.4215 26.8825 16.0586 24.8458 13.3011L0.0846938 36.9168ZM57.917 0L58 0.000153212V17.6271H37.093C38.3234 7.69988 47.1774 0 57.917 0ZM37.1609 22.8678H58V39.9998L57.917 40C47.3566 40 38.6194 32.5549 37.1609 22.8678Z" fill="white"/>
</svg>
